<svg width="119" height="120" viewBox="0 0 119 120" fill="none" xmlns="http://www.w3.org/2000/svg">
<g filter="url(#filter0_d_22_3)">
<path d="M4 50C4 22.3858 26.3858 0 54 0L64 0C91.6142 0 114 22.3858 114 50V62C114 89.6142 91.6142 112 64 112H59H54C26.3858 112 4 89.6142 4 62L4 50Z" fill="#0EBEDF"/>
<path d="M54 0.5L64 0.5C91.3381 0.5 113.5 22.6619 113.5 50V62C113.5 89.3381 91.3381 111.5 64 111.5H59H54C26.6619 111.5 4.5 89.3381 4.5 62L4.5 50C4.5 22.6619 26.6619 0.5 54 0.5Z" stroke="#0EBEDF"/>
</g>
<g filter="url(#filter1_d_22_3)">
<path d="M11 54.5C11 28.2665 32.2665 7 58.5 7C84.7335 7 106 28.2665 106 54.5V59.5C106 85.7335 84.7335 107 58.5 107C32.2665 107 11 85.7335 11 59.5V54.5Z" fill="white"/>
<path d="M11.5 54.5C11.5 28.5426 32.5426 7.5 58.5 7.5C84.4574 7.5 105.5 28.5426 105.5 54.5V59.5C105.5 85.4574 84.4574 106.5 58.5 106.5C32.5426 106.5 11.5 85.4574 11.5 59.5V54.5Z" stroke="white"/>
</g>
<path d="M40.98 73V87H39.52V80.54H30.76V87H29.28V73H30.76V79.24H39.52V73H40.98ZM49.5495 87.1C48.5362 87.1 47.6229 86.8733 46.8095 86.42C45.9962 85.9533 45.3562 85.3133 44.8895 84.5C44.4229 83.6867 44.1895 82.7667 44.1895 81.74C44.1895 80.7133 44.4229 79.7933 44.8895 78.98C45.3562 78.1667 45.9962 77.5333 46.8095 77.08C47.6229 76.6267 48.5362 76.4 49.5495 76.4C50.5629 76.4 51.4762 76.6267 52.2895 77.08C53.1029 77.5333 53.7362 78.1667 54.1895 78.98C54.6562 79.7933 54.8895 80.7133 54.8895 81.74C54.8895 82.7667 54.6562 83.6867 54.1895 84.5C53.7362 85.3133 53.1029 85.9533 52.2895 86.42C51.4762 86.8733 50.5629 87.1 49.5495 87.1ZM49.5495 85.84C50.2962 85.84 50.9629 85.6733 51.5495 85.34C52.1495 84.9933 52.6162 84.5067 52.9495 83.88C53.2829 83.2533 53.4495 82.54 53.4495 81.74C53.4495 80.94 53.2829 80.2267 52.9495 79.6C52.6162 78.9733 52.1495 78.4933 51.5495 78.16C50.9629 77.8133 50.2962 77.64 49.5495 77.64C48.8029 77.64 48.1295 77.8133 47.5295 78.16C46.9429 78.4933 46.4762 78.9733 46.1295 79.6C45.7962 80.2267 45.6295 80.94 45.6295 81.74C45.6295 82.54 45.7962 83.2533 46.1295 83.88C46.4762 84.5067 46.9429 84.9933 47.5295 85.34C48.1295 85.6733 48.8029 85.84 49.5495 85.84ZM70.9086 76.4C72.2286 76.4 73.2619 76.78 74.0086 77.54C74.7686 78.3 75.1486 79.42 75.1486 80.9V87H73.7286V81.04C73.7286 79.9467 73.4619 79.1133 72.9286 78.54C72.4086 77.9667 71.6686 77.68 70.7086 77.68C69.6153 77.68 68.7553 78.02 68.1286 78.7C67.5019 79.3667 67.1886 80.2933 67.1886 81.48V87H65.7686V81.04C65.7686 79.9467 65.5019 79.1133 64.9686 78.54C64.4486 77.9667 63.7019 77.68 62.7286 77.68C61.6486 77.68 60.7886 78.02 60.1486 78.7C59.5219 79.3667 59.2086 80.2933 59.2086 81.48V87H57.7886V76.48H59.1486V78.4C59.5219 77.76 60.0419 77.2667 60.7086 76.92C61.3753 76.5733 62.1419 76.4 63.0086 76.4C63.8886 76.4 64.6486 76.5867 65.2886 76.96C65.9419 77.3333 66.4286 77.8867 66.7486 78.62C67.1353 77.9267 67.6886 77.3867 68.4086 77C69.1419 76.6 69.9753 76.4 70.9086 76.4ZM88.1986 82.18H79.3986C79.4786 83.2733 79.8986 84.16 80.6586 84.84C81.4186 85.5067 82.3786 85.84 83.5386 85.84C84.1919 85.84 84.7919 85.7267 85.3386 85.5C85.8853 85.26 86.3586 84.9133 86.7586 84.46L87.5586 85.38C87.0919 85.94 86.5053 86.3667 85.7986 86.66C85.1053 86.9533 84.3386 87.1 83.4986 87.1C82.4186 87.1 81.4586 86.8733 80.6186 86.42C79.7919 85.9533 79.1453 85.3133 78.6786 84.5C78.2119 83.6867 77.9786 82.7667 77.9786 81.74C77.9786 80.7133 78.1986 79.7933 78.6386 78.98C79.0919 78.1667 79.7053 77.5333 80.4786 77.08C81.2653 76.6267 82.1453 76.4 83.1186 76.4C84.0919 76.4 84.9653 76.6267 85.7386 77.08C86.5119 77.5333 87.1186 78.1667 87.5586 78.98C87.9986 79.78 88.2186 80.7 88.2186 81.74L88.1986 82.18ZM83.1186 77.62C82.1053 77.62 81.2519 77.9467 80.5586 78.6C79.8786 79.24 79.4919 80.08 79.3986 81.12H86.8586C86.7653 80.08 86.3719 79.24 85.6786 78.6C84.9986 77.9467 84.1453 77.62 83.1186 77.62Z" fill="#1D1617"/>
<path d="M76.1748 42.465C76.1748 43.7248 75.2227 44.7116 74.1436 44.7116H72.1123L72.1567 55.9165C72.1567 56.1125 72.144 56.2944 72.125 56.4834V57.6172C72.125 59.1639 70.9888 60.4167 69.5859 60.4167H68.5703C68.5005 60.4167 68.4307 60.3537 68.3608 60.4097C68.272 60.3537 68.1831 60.4167 68.0942 60.4167H64.5078C63.105 60.4167 61.9688 59.1639 61.9688 57.6172V51.4583C61.9688 50.2196 61.061 49.2188 59.9375 49.2188H55.875C54.7515 49.2188 53.8438 50.2196 53.8438 51.4583V57.6172C53.8438 59.1639 52.7075 60.4167 51.3047 60.4167H47.7563C47.6611 60.4167 47.5659 60.4097 47.4707 60.4027C47.3945 60.4097 47.3184 60.4167 47.2422 60.4167H46.2266C44.8244 60.4167 43.6875 59.1639 43.6875 57.6172V49.7787C43.6875 49.7157 43.6894 49.6457 43.6932 49.5827V44.7116H41.6594C40.5149 44.7116 39.625 43.7248 39.625 42.465C39.625 41.8351 39.8157 41.2752 40.2604 40.7853L56.5352 25.1444C56.9795 24.6535 57.4873 24.5833 57.9316 24.5833C58.376 24.5833 58.8838 24.7236 59.271 25.0742L75.4766 40.7853C75.9844 41.2752 76.2446 41.8351 76.1748 42.465Z" fill="#1D1617"/>
<defs>
<filter id="filter0_d_22_3" x="0" y="0" width="118" height="120" filterUnits="userSpaceOnUse" color-interpolation-filters="sRGB">
<feFlood flood-opacity="0" result="BackgroundImageFix"/>
<feColorMatrix in="SourceAlpha" type="matrix" values="0 0 0 0 0 0 0 0 0 0 0 0 0 0 0 0 0 0 127 0" result="hardAlpha"/>
<feOffset dy="4"/>
<feGaussianBlur stdDeviation="2"/>
<feComposite in2="hardAlpha" operator="out"/>
<feColorMatrix type="matrix" values="0 0 0 0 0 0 0 0 0 0 0 0 0 0 0 0 0 0 0.25 0"/>
<feBlend mode="normal" in2="BackgroundImageFix" result="effect1_dropShadow_22_3"/>
<feBlend mode="normal" in="SourceGraphic" in2="effect1_dropShadow_22_3" result="shape"/>
</filter>
<filter id="filter1_d_22_3" x="7" y="7" width="103" height="108" filterUnits="userSpaceOnUse" color-interpolation-filters="sRGB">
<feFlood flood-opacity="0" result="BackgroundImageFix"/>
<feColorMatrix in="SourceAlpha" type="matrix" values="0 0 0 0 0 0 0 0 0 0 0 0 0 0 0 0 0 0 127 0" result="hardAlpha"/>
<feOffset dy="4"/>
<feGaussianBlur stdDeviation="2"/>
<feComposite in2="hardAlpha" operator="out"/>
<feColorMatrix type="matrix" values="0 0 0 0 0 0 0 0 0 0 0 0 0 0 0 0 0 0 0.25 0"/>
<feBlend mode="normal" in2="BackgroundImageFix" result="effect1_dropShadow_22_3"/>
<feBlend mode="normal" in="SourceGraphic" in2="effect1_dropShadow_22_3" result="shape"/>
</filter>
</defs>
</svg>
