<svg width="35" height="28" viewBox="0 0 21 19" fill="none" xmlns="http://www.w3.org/2000/svg">
<path d="M8.58366 13.8196V13.2187C8.58366 12.4846 8.87327 11.7801 9.38959 11.2583L13.1132 7.49517C13.201 7.40639 13.2503 7.28655 13.2503 7.16166C13.2503 6.89979 13.038 6.6875 12.7761 6.6875H9.04163C8.1337 6.6875 7.41663 5.93836 7.41663 5.04688C7.41663 2.67378 5.49286 0.75 3.11976 0.75H0.874996C0.816778 0.75 0.75 0.798711 0.75 0.890625V18.1094C0.75 18.2013 0.816778 18.25 0.874996 18.25H13.1249C13.1832 18.25 13.2499 18.2013 13.2499 18.1094C13.2499 17.7033 12.921 17.3741 12.5149 17.3737L9.33264 17.3709L9.31861 17.3709L9.31861 17.3708C8.66098 17.3579 8.05388 17.0712 7.62937 16.5909L7.61193 16.6264L8.58366 13.8196ZM8.58366 13.8196C8.5159 13.788 8.44709 13.7597 8.37762 13.7348C8.30188 13.7076 8.2271 13.6813 8.15343 13.6554C7.83302 13.5428 7.53343 13.4375 7.26544 13.2975C6.92854 13.1214 6.82098 12.978 6.79288 12.8922L6.08013 13.1256L6.79253 12.8911C6.57387 12.2268 5.95886 11.7666 5.24998 11.7666C4.54062 11.7666 3.92637 12.2275 3.70734 12.8902L3.70662 12.8924L3.11952 14.6875H2.91665C2.16769 14.6875 1.58332 15.3016 1.58332 16.0312C1.58332 16.7609 2.16769 17.375 2.91665 17.375H3.36837C4.08577 17.375 4.73974 17.0443 5.17076 16.5096C5.57257 17.587 7.0881 17.6945 7.61152 16.6273L8.58366 13.8196ZM9.33206 15.0294L8.99241 15.1963L9.33208 15.0293C9.33207 15.0293 9.33207 15.0294 9.33206 15.0294ZM20.7279 7.54582L20.1929 7.02021C19.941 7.27659 19.5279 7.27659 19.276 7.02021L18.7882 6.52368C18.5233 6.25411 18.5233 5.82203 18.7882 5.55245C18.8566 5.48276 18.9625 5.48276 19.031 5.55245L20.1929 6.73513L20.1932 6.7354C20.2689 6.81242 20.2689 6.94292 20.1932 7.01994L20.7279 7.54582ZM5.57602 15.7622C5.57597 15.7624 5.57592 15.7625 5.57587 15.7627L5.24994 15.6559L4.86316 15.5292L5.25036 15.6558L5.57602 15.7622ZM10.0833 1.23657L12.7955 4H11.6666C10.7922 4 10.0833 3.29112 10.0833 2.41668V1.23657ZM11.25 13.6679V13.6219C11.25 13.3413 11.3607 13.0719 11.5581 12.8724L15.7043 8.6825C16.1051 8.27747 16.7598 8.27865 17.1591 8.68512C17.5486 9.08158 17.5497 9.7167 17.1616 10.1145L12.9992 14.38C12.8073 14.5766 12.5442 14.6875 12.2695 14.6875C11.7064 14.6875 11.25 14.231 11.25 13.6679Z" fill="white" stroke="#C4C4C4" stroke-width="1.5"/>
</svg>
