<svg width="35" height="28" viewBox="0 0 25 18" fill="none" xmlns="http://www.w3.org/2000/svg">
<path d="M1.25 17C0.835908 17 0.5 16.6641 0.5 16.25V4.25H24.5V16.25C24.5 16.6641 24.1641 17 23.75 17H1.25ZM18.125 7C17.5035 7 17 7.50355 17 8.125V9.375C17 9.99646 17.5035 10.5 18.125 10.5H21.875C22.4965 10.5 23 9.99646 23 9.375V8.125C23 7.50355 22.4965 7 21.875 7H18.125ZM17.8125 12C17.3637 12 17 12.3637 17 12.8125V13.4375C17 13.8863 17.3637 14.25 17.8125 14.25H22.1875C22.6363 14.25 23 13.8863 23 13.4375V12.8125C23 12.3637 22.6363 12 22.1875 12H17.8125ZM2.8125 8.25C2.3637 8.25 2 8.6137 2 9.0625V9.6875C2 10.1363 2.3637 10.5 2.8125 10.5H14.6875C15.1363 10.5 15.5 10.1363 15.5 9.6875V9.0625C15.5 8.6137 15.1363 8.25 14.6875 8.25H2.8125ZM2.8125 12C2.3637 12 2 12.3637 2 12.8125V13.4375C2 13.8863 2.3637 14.25 2.8125 14.25H9.6875C10.1363 14.25 10.5 13.8863 10.5 13.4375V12.8125C10.5 12.3637 10.1363 12 9.6875 12H2.8125ZM0.625 0.5H24.375C24.4442 0.5 24.5 0.55583 24.5 0.625V2H0.5V0.625C0.5 0.55583 0.55583 0.5 0.625 0.5Z" fill="white" stroke="#C4C4C4"/>
</svg>
