<svg width="25" height="25" viewBox="0 0 32 32" fill="none" xmlns="http://www.w3.org/2000/svg">
<path d="M24.2239 20.9093L19.2521 15.9375L24.2239 10.9657C24.834 10.3556 24.834 9.36604 24.2239 8.75595L23.1191 7.6511C22.509 7.04101 21.5194 7.04101 20.9093 7.6511L15.9375 12.6229L10.9657 7.6511C10.3556 7.04101 9.36603 7.04101 8.75595 7.6511L7.65109 8.75595C7.04101 9.36604 7.04101 10.3556 7.65109 10.9657L12.6229 15.9375L7.65109 20.9093C7.04101 21.5194 7.04101 22.509 7.65109 23.1191L8.75595 24.2239C9.36603 24.834 10.3556 24.834 10.9657 24.2239L15.9375 19.2521L20.9093 24.2239C21.5194 24.834 22.509 24.834 23.1191 24.2239L24.2239 23.1191C24.834 22.509 24.834 21.5194 24.2239 20.9093Z" fill="#727171"/>
</svg>
