<svg width="22" height="15" viewBox="0 0 25 18" fill="none" xmlns="http://www.w3.org/2000/svg">
<path d="M19.7168 0.5H19.7168C17.3843 0.499811 15.0401 1.0903 12.6227 1.70215L12.5909 1.7102C10.2072 2.31352 7.75107 2.93516 5.2832 2.93516C4.03353 2.93516 2.77575 2.77645 1.51297 2.37584L19.7168 0.5ZM19.7168 0.5C21.1774 0.5 22.6263 0.732624 24.0707 1.33843C24.3202 1.4431 24.5001 1.71573 24.5004 2.02891V14.4211C24.5004 14.8454 24.159 15.1637 23.7406 15.1637C23.6591 15.1637 23.5741 15.1512 23.4874 15.1238C22.2246 14.7232 20.9669 14.5645 19.7172 14.5645C17.2491 14.5645 14.7928 15.1862 12.4088 15.7896L12.3775 15.7975C9.95994 16.4094 7.61569 17 5.2832 17C3.82263 17 2.3737 16.7674 0.929435 16.1612L0.929005 16.161M19.7168 0.5L0.929005 16.161M0.929005 16.161C0.679901 16.0568 0.5 15.7841 0.5 15.4715V3.07852C0.5 2.65416 0.841356 2.33594 1.25977 2.33594C1.34126 2.33594 1.4262 2.34835 1.51286 2.37581L0.929005 16.161ZM1.99649 3.42983L1.375 3.27415V3.91484V6.27695V6.77695H1.875C3.33056 6.77695 4.54009 5.73728 4.81528 4.36176L4.92755 3.80062L4.35642 3.76466C3.52975 3.71261 2.74229 3.61665 1.99649 3.42983ZM1.375 15.0477V15.398L1.70426 15.5176C2.53463 15.8193 3.40145 16.004 4.32363 16.0781L4.88855 16.1235L4.86317 15.5573C4.7917 13.963 3.49107 12.6812 1.875 12.6812H1.375V13.1812V15.0477ZM23.0035 14.0702L23.625 14.2259V13.5852V11.3305V10.7631L23.0621 10.8344C21.8054 10.9938 20.7908 11.9218 20.5153 13.1457L20.3895 13.7049L20.9606 13.7537C21.6727 13.8145 22.3545 13.9075 23.0035 14.0702ZM23.0622 4.85815L23.625 4.92939V4.36211V2.45234V2.10188L23.2956 1.98233C22.5611 1.71583 21.7971 1.54938 21.0001 1.46087L20.428 1.39733L20.4451 1.97272C20.4897 3.46544 21.6138 4.67481 23.0622 4.85815ZM8.875 8.75C8.875 11.0076 10.4161 13 12.5 13C14.5829 13 16.125 11.0085 16.125 8.75C16.125 6.49198 14.5834 4.5 12.5 4.5C10.4166 4.5 8.875 6.49198 8.875 8.75Z" fill="white" stroke="#6C6A6A"/>
</svg>
