<svg width="26" height="26" viewBox="0 0 26 26" fill="none" xmlns="http://www.w3.org/2000/svg">
<path d="M25.0559 7.4068L22.8049 9.65778C22.5754 9.88727 22.2043 9.88727 21.9748 9.65778L16.5549 4.23785C16.3254 4.00836 16.3254 3.63727 16.5549 3.40778L18.8059 1.1568C19.719 0.243713 21.2034 0.243713 22.1213 1.1568L25.0559 4.09137C25.9739 5.00446 25.9739 6.48883 25.0559 7.4068ZM14.6213 5.34137L1.79907 18.1636L0.763911 24.0963C0.622309 24.897 1.32055 25.5904 2.12133 25.4537L8.05395 24.4136L20.8762 11.5914C21.1057 11.3619 21.1057 10.9908 20.8762 10.7613L15.4563 5.34137C15.2219 5.11188 14.8508 5.11188 14.6213 5.34137ZM6.80395 17.065C6.5354 16.7964 6.5354 16.3668 6.80395 16.0982L14.3235 8.57867C14.592 8.31012 15.0217 8.31012 15.2903 8.57867C15.5588 8.84723 15.5588 9.27692 15.2903 9.54547L7.77075 17.065C7.50219 17.3336 7.0725 17.3336 6.80395 17.065ZM5.04125 21.1714H7.385V22.9439L4.23559 23.4957L2.71704 21.9771L3.26879 18.8277H5.04125V21.1714Z" fill="#51C9C2"/>
</svg>
