<svg width="20" height="19" viewBox="0 0 25 22" fill="none" xmlns="http://www.w3.org/2000/svg">
<path d="M12.769 17.9196C15.5993 17.9195 18.1855 17.1806 20.0796 15.9577C21.969 14.7379 23.2253 12.9925 23.2253 10.9865C23.2253 8.98064 21.9692 7.23297 20.08 6.01086C18.1858 4.78553 15.5991 4.04418 12.7682 4.04418C9.93734 4.04418 7.35068 4.78553 5.45646 6.01086C3.56721 7.23297 2.3112 8.98064 2.3112 10.9865C2.3112 12.6855 3.21066 14.1993 4.63209 15.3631C4.9166 16.4261 4.71709 17.6657 3.93364 19.118L3.93363 19.118L3.93187 19.1213C3.91362 19.1557 3.89854 19.185 3.88465 19.2119C3.86197 19.2558 3.84246 19.2936 3.81755 19.3379L3.35304 20.1647L4.2977 20.0808C5.14241 20.0058 5.96525 19.7714 6.72269 19.3901L6.73355 19.3846L6.74414 19.3786C7.35877 19.0307 7.92649 18.6057 8.43354 18.1141C8.4337 18.1139 8.43387 18.1138 8.43403 18.1136L9.09059 17.4796C10.2939 17.7753 11.5292 17.9231 12.769 17.9196ZM12.769 17.9196C12.7687 17.9196 12.7685 17.9196 12.7682 17.9196V17.4196L12.7697 17.9196C12.7694 17.9196 12.7692 17.9196 12.769 17.9196ZM13.6675 11.0299H13.6675V11.008C13.6604 10.6561 13.5279 10.4294 13.3592 10.2857C13.1804 10.1333 12.9292 10.0488 12.6629 10.0532C12.3966 10.0577 12.1489 10.1505 11.9758 10.3086C11.812 10.4582 11.6869 10.6906 11.6931 11.0463L13.6675 11.0299ZM13.6675 11.0299L13.6676 11.0342M13.6675 11.0299L13.6676 11.0342M13.6676 11.0342C13.6706 11.3863 13.5447 11.6149 13.3812 11.7614M13.6676 11.0342L13.3812 11.7614M13.3812 11.7614C13.2082 11.9163 12.9613 12.0064 12.6956 12.0084M13.3812 11.7614L12.6956 12.0084M12.6956 12.0084C12.4301 12.0105 12.1793 11.9243 12.0005 11.7707M12.6956 12.0084L12.0005 11.7707M12.0005 11.7707C11.8311 11.6252 11.6992 11.3973 11.6931 11.0463L12.0005 11.7707ZM20.8359 4.96134L21.1146 5.1455C23.4015 6.71473 24.5019 8.87731 24.5001 10.9984C24.4981 13.2023 23.306 15.4467 20.8425 17.0194L20.8425 17.0194L20.836 17.0236C17.621 19.1464 13.3213 19.6399 9.73644 18.9956L9.48645 18.9507L9.30274 19.1261C7.33592 21.0038 5.279 21.4984 3.61177 21.4729C2.46253 21.4553 1.49699 21.1899 0.878384 20.9517C1.17405 20.6533 1.55447 20.2391 1.92116 19.7514C2.65919 18.7699 3.45358 17.3442 3.14519 15.9311L3.11454 15.7906L3.01399 15.6879C2.09014 14.7441 1.21305 13.2724 1.00589 11.6054C0.801736 9.96255 1.24176 8.09121 3.01362 6.28494L3.11448 6.18213L3.14519 6.04141C3.45358 4.62829 2.65919 3.20254 1.92116 2.22106C1.55508 1.73421 1.17532 1.32058 0.879863 1.02225C1.50225 0.783495 2.47161 0.517566 3.62261 0.500832C5.29098 0.476577 7.34493 0.974495 9.30089 2.86109L9.48503 3.0387L9.73681 2.99326C13.3296 2.34483 17.6291 2.84254 20.8359 4.96134ZM8.36027 11.942C8.25683 11.9859 8.14671 12.0115 8.03478 12.0179L7.98425 12.0186C7.72238 12.0223 7.46972 11.9221 7.28163 11.7398C7.09367 11.5577 6.98552 11.3085 6.98084 11.0469C6.97547 10.6914 7.10103 10.4592 7.26512 10.3099C7.43864 10.1519 7.68659 10.0594 7.95285 10.0554C8.21912 10.0514 8.46994 10.1363 8.64834 10.2888C8.81656 10.4326 8.94864 10.6596 8.95486 11.0118V11.0299H8.95484L8.95488 11.0346C8.95609 11.1628 8.93202 11.29 8.88403 11.4089C8.83604 11.5278 8.76508 11.6361 8.67521 11.7276C8.58534 11.8191 8.47832 11.8919 8.36027 11.942ZM17.7867 11.943C17.6845 11.9861 17.5757 12.0114 17.4652 12.0178L17.4092 12.0186C17.1472 12.0223 16.8945 11.9221 16.7063 11.7398C16.5184 11.5577 16.4102 11.3086 16.4053 11.047C16.4 10.6915 16.5256 10.4593 16.6898 10.3099C16.8634 10.1519 17.1114 10.0594 17.3777 10.0554C17.644 10.0514 17.8948 10.1363 18.0733 10.2888C18.2415 10.4327 18.3736 10.6596 18.3798 11.0119V11.0299H18.3797L18.3798 11.0362C18.3814 11.1643 18.3577 11.2915 18.3099 11.4104C18.2622 11.5293 18.1913 11.6376 18.1015 11.729C18.0117 11.8204 17.9047 11.8931 17.7867 11.943Z" fill="white" stroke="black"/>
</svg>
