<svg width="23" height="26" viewBox="0 0 23 26" fill="none" xmlns="http://www.w3.org/2000/svg">
<path d="M1.86938 23.4497C1.86938 24.0713 2.11631 24.6675 2.55585 25.107C2.99538 25.5465 3.59153 25.7935 4.21313 25.7935H18.2756C18.8972 25.7935 19.4934 25.5465 19.9329 25.107C20.3724 24.6675 20.6194 24.0713 20.6194 23.4497V7.04347H1.86938V23.4497ZM15.1506 10.9497C15.1506 10.7425 15.2329 10.5438 15.3794 10.3973C15.526 10.2508 15.7247 10.1685 15.9319 10.1685C16.1391 10.1685 16.3378 10.2508 16.4843 10.3973C16.6308 10.5438 16.7131 10.7425 16.7131 10.9497V21.8872C16.7131 22.0944 16.6308 22.2931 16.4843 22.4396C16.3378 22.5862 16.1391 22.6685 15.9319 22.6685C15.7247 22.6685 15.526 22.5862 15.3794 22.4396C15.2329 22.2931 15.1506 22.0944 15.1506 21.8872V10.9497ZM10.4631 10.9497C10.4631 10.7425 10.5454 10.5438 10.6919 10.3973C10.8385 10.2508 11.0372 10.1685 11.2444 10.1685C11.4516 10.1685 11.6503 10.2508 11.7968 10.3973C11.9433 10.5438 12.0256 10.7425 12.0256 10.9497V21.8872C12.0256 22.0944 11.9433 22.2931 11.7968 22.4396C11.6503 22.5862 11.4516 22.6685 11.2444 22.6685C11.0372 22.6685 10.8385 22.5862 10.6919 22.4396C10.5454 22.2931 10.4631 22.0944 10.4631 21.8872V10.9497ZM5.77563 10.9497C5.77563 10.7425 5.85794 10.5438 6.00445 10.3973C6.15096 10.2508 6.34968 10.1685 6.55688 10.1685C6.76408 10.1685 6.96279 10.2508 7.1093 10.3973C7.25582 10.5438 7.33813 10.7425 7.33813 10.9497V21.8872C7.33813 22.0944 7.25582 22.2931 7.1093 22.4396C6.96279 22.5862 6.76408 22.6685 6.55688 22.6685C6.34968 22.6685 6.15096 22.5862 6.00445 22.4396C5.85794 22.2931 5.77563 22.0944 5.77563 21.8872V10.9497ZM21.4006 2.35597H15.5413L15.0823 1.44288C14.985 1.24767 14.8353 1.08347 14.6498 0.968738C14.4643 0.85401 14.2505 0.793309 14.0325 0.793466H8.45141C8.23382 0.792629 8.0204 0.853103 7.83559 0.96796C7.65078 1.08282 7.50207 1.24741 7.40649 1.44288L6.9475 2.35597H1.08813C0.880927 2.35597 0.682213 2.43828 0.5357 2.58479C0.389187 2.7313 0.306877 2.93002 0.306877 3.13722L0.306877 4.69972C0.306877 4.90692 0.389187 5.10563 0.5357 5.25214C0.682213 5.39866 0.880927 5.48097 1.08813 5.48097H21.4006C21.6078 5.48097 21.8065 5.39866 21.9531 5.25214C22.0996 5.10563 22.1819 4.90692 22.1819 4.69972V3.13722C22.1819 2.93002 22.0996 2.7313 21.9531 2.58479C21.8065 2.43828 21.6078 2.35597 21.4006 2.35597Z" fill="#F94A4A"/>
</svg>
