<svg width="15" height="22" viewBox="0 0 18 25" fill="none" xmlns="http://www.w3.org/2000/svg">
<path d="M3.80287 7.13246L4.155 7.41354L3.80287 7.13246C3.57566 7.41711 3.16248 7.46871 2.87206 7.24851C2.87206 7.2485 2.87205 7.2485 2.87205 7.2485L0.765712 5.65139C0.47873 5.43378 0.414286 5.02753 0.621178 4.73024C1.5801 3.35235 2.6532 2.30126 3.9362 1.59197C5.21724 0.883759 6.73695 0.5 8.61444 0.5C10.5636 0.5 12.5945 1.26378 14.1344 2.53613C15.6722 3.80671 16.6829 5.55026 16.6829 7.49999C16.6829 8.81795 16.3294 9.7862 15.8147 10.5378C15.2943 11.2976 14.5912 11.8621 13.8526 12.3409C13.4907 12.5755 13.1276 12.7851 12.7742 12.989L12.7517 13.002C12.3969 13.2068 12.0454 13.41 11.7404 13.618C11.1591 14.0143 10.5663 14.5437 10.5663 15.3431V15.625C10.5663 15.9961 10.2655 16.2969 9.89442 16.2969H6.3558C5.98473 16.2969 5.68393 15.9961 5.68393 15.625V15.1471C5.68393 12.4962 7.61864 11.4121 9.37175 10.4298C9.39686 10.4157 9.42192 10.4017 9.44695 10.3876C10.177 9.97833 10.8306 9.60088 11.2949 9.16999C11.7843 8.71576 12.0947 8.17391 12.0947 7.45327C12.0947 6.49173 11.4809 5.75073 10.7503 5.27605C10.0158 4.79887 9.08092 4.52988 8.23451 4.52988C7.19148 4.52988 6.38831 4.77389 5.67907 5.24643C4.98959 5.70579 4.41524 6.36529 3.80287 7.13246ZM5.24276 21.6177C5.24276 20.0288 6.53624 18.7353 8.12514 18.7353C9.71404 18.7353 11.0075 20.0287 11.0075 21.6176C11.0075 23.2065 9.71403 24.5 8.12514 24.5C6.53623 24.5 5.24276 23.2065 5.24276 21.6177Z" fill="white" stroke="black"/>
</svg>
