<svg width="15" height="15" viewBox="0 0 22 22" fill="none" xmlns="http://www.w3.org/2000/svg">
<path d="M21.2891 7.8125H15.2344C14.585 7.8125 14.0625 7.29004 14.0625 6.64062V0.585938C14.0625 0.263672 14.3262 0 14.6484 0H16.6016C16.9238 0 17.1875 0.263672 17.1875 0.585938V4.6875H21.2891C21.6113 4.6875 21.875 4.95117 21.875 5.27344V7.22656C21.875 7.54883 21.6113 7.8125 21.2891 7.8125ZM7.8125 6.64062V0.585938C7.8125 0.263672 7.54883 0 7.22656 0H5.27344C4.95117 0 4.6875 0.263672 4.6875 0.585938V4.6875H0.585938C0.263672 4.6875 0 4.95117 0 5.27344V7.22656C0 7.54883 0.263672 7.8125 0.585938 7.8125H6.64062C7.29004 7.8125 7.8125 7.29004 7.8125 6.64062ZM7.8125 21.2891V15.2344C7.8125 14.585 7.29004 14.0625 6.64062 14.0625H0.585938C0.263672 14.0625 0 14.3262 0 14.6484V16.6016C0 16.9238 0.263672 17.1875 0.585938 17.1875H4.6875V21.2891C4.6875 21.6113 4.95117 21.875 5.27344 21.875H7.22656C7.54883 21.875 7.8125 21.6113 7.8125 21.2891ZM17.1875 21.2891V17.1875H21.2891C21.6113 17.1875 21.875 16.9238 21.875 16.6016V14.6484C21.875 14.3262 21.6113 14.0625 21.2891 14.0625H15.2344C14.585 14.0625 14.0625 14.585 14.0625 15.2344V21.2891C14.0625 21.6113 14.3262 21.875 14.6484 21.875H16.6016C16.9238 21.875 17.1875 21.6113 17.1875 21.2891Z" fill="#4D4C4C"/>
</svg>
