<svg width="31" height="48" viewBox="0 0 31 48" fill="none" xmlns="http://www.w3.org/2000/svg">
<path d="M29.7369 23.9609C29.7369 25.3672 28.9953 26.4688 28.1547 26.4688H26.5724L26.607 38.9766C26.607 39.1953 26.5971 39.3984 26.5823 39.6094V40.875C26.5823 42.6016 25.6972 44 24.6044 44H23.8133C23.7589 44 23.7045 43.9297 23.6501 43.9922C23.5809 43.9297 23.5117 44 23.4424 44H20.6487C19.556 44 18.6709 42.6016 18.6709 40.875V34C18.6709 32.6172 17.9638 31.5 17.0886 31.5H13.9241C13.0489 31.5 12.3418 32.6172 12.3418 34V40.875C12.3418 42.6016 11.4567 44 10.3639 44H7.59988C7.52571 44 7.45154 43.9922 7.37737 43.9844C7.31804 43.9922 7.2587 44 7.19937 44H6.40823C5.31596 44 4.43038 42.6016 4.43038 40.875V32.125C4.43038 32.0547 4.43186 31.9766 4.43483 31.9063V26.4688H2.85057C1.95906 26.4688 1.26582 25.3672 1.26582 23.9609C1.26582 23.2578 1.41436 22.6328 1.76078 22.0859L14.4383 4.62625C14.7844 4.07828 15.18 4 15.5261 4C15.8722 4 16.2678 4.15656 16.5694 4.54797L29.193 22.0859C29.5886 22.6328 29.7913 23.2578 29.7369 23.9609Z" fill="#1D1617"/>
</svg>