<svg width="25" height="23" viewBox="0 0 25 23" fill="none" xmlns="http://www.w3.org/2000/svg">
<path d="M12.3563 13.6533L12.3562 13.6533C11.677 12.8519 10.4559 11.3531 9.40735 9.75791C8.8829 8.96005 8.40832 8.14815 8.06646 7.39452C7.72013 6.63103 7.53125 5.97268 7.53125 5.46875C7.53125 2.72449 9.75574 0.5 12.5 0.5C15.2443 0.5 17.4688 2.72449 17.4688 5.46875C17.4688 5.97268 17.2799 6.63103 16.9335 7.39452C16.5917 8.14815 16.1171 8.96005 15.5927 9.75791C14.5441 11.3531 13.323 12.8519 12.6438 13.6533L12.6435 13.6536C12.5665 13.7446 12.4341 13.7451 12.3563 13.6533ZM1.05895 9.83707L0.874281 9.37537L1.05895 9.83707L5.73411 7.96709C5.9311 8.45506 6.17068 8.95293 6.44444 9.45625V19.1227L0.759025 21.7105C0.633437 21.7548 0.5 21.6618 0.5 21.5269V10.6624C0.5 10.6624 0.5 10.6624 0.5 10.6623C0.500062 10.4847 0.553329 10.3111 0.652935 10.1641C0.752563 10.0169 0.89398 9.90306 1.05895 9.83707ZM18.5556 21.4837V10.044L24.241 7.4562C24.3666 7.41182 24.5 7.50487 24.5 7.63976V18.5043C24.5 18.682 24.4468 18.8556 24.3471 19.0027C24.2475 19.1497 24.1061 19.2636 23.9411 19.3296L23.941 19.3296L18.5556 21.4837ZM10.1771 5.46875C10.1771 6.75184 11.2169 7.79167 12.5 7.79167C13.7831 7.79167 14.8229 6.75184 14.8229 5.46875C14.8229 4.18566 13.7831 3.14583 12.5 3.14583C11.2169 3.14583 10.1771 4.18566 10.1771 5.46875ZM8.83333 13.0801C9.39838 13.826 9.97803 14.5418 10.5339 15.1978C11.0248 15.7774 11.7418 16.1107 12.5 16.1107C13.2582 16.1107 13.9752 15.7774 14.466 15.1983C15.0222 14.5423 15.6018 13.8263 16.1667 13.0805V21.5281L8.83333 19.0836V13.0801Z" fill="white" stroke="#6C6A6A"/>
</svg>