<svg width="25" height="20" viewBox="0 0 25 20" fill="none" xmlns="http://www.w3.org/2000/svg">
<path d="M14.25 14.375C14.25 11.5418 16.5418 9.25 19.375 9.25C22.2082 9.25 24.5 11.5418 24.5 14.375C24.5 17.2082 22.2082 19.5 19.375 19.5C16.5418 19.5 14.25 17.2082 14.25 14.375ZM21.4961 15.5C21.9793 15.5 22.375 15.1043 22.375 14.6211V14.1289C22.375 13.6457 21.9793 13.25 21.4961 13.25H20.5V11.6289C20.5 11.1457 20.1043 10.75 19.6211 10.75H19.1289C18.6457 10.75 18.25 11.1457 18.25 11.6289V14.6211C18.25 15.1043 18.6457 15.5 19.1289 15.5H21.4961ZM14.0827 19.5H1.875C1.11599 19.5 0.5 18.884 0.5 18.125V16.5C0.5 13.8777 2.6277 11.75 5.25 11.75H5.79536C6.70154 12.1486 7.69813 12.375 8.75 12.375C9.80119 12.375 10.8015 12.1489 11.705 11.75H12.25C12.3291 11.75 12.4081 11.7526 12.4872 11.7575C12.1759 12.5699 12 13.4522 12 14.375C12 16.3672 12.7969 18.1734 14.0827 19.5ZM13.25 5C13.25 7.48558 11.2356 9.5 8.75 9.5C6.26442 9.5 4.25 7.48558 4.25 5C4.25 2.51442 6.26442 0.5 8.75 0.5C11.2356 0.5 13.25 2.51442 13.25 5Z" fill="white" stroke="#6C6A6A"/>
</svg>
