<svg width="20" height="23" viewBox="0 0 23 26" fill="none" xmlns="http://www.w3.org/2000/svg">
<path d="M7.24801 12.6545V13.1545H7.74801H19.8574C20.8752 13.1545 21.7011 13.9805 21.7011 14.9983V22.8108C21.7011 23.8286 20.8752 24.6545 19.8574 24.6545H2.66989C1.65208 24.6545 0.826138 23.8286 0.826138 22.8108V14.9983C0.826138 13.9805 1.65208 13.1545 2.66989 13.1545H3.84176H4.34176V12.6545V7.64966C4.34176 3.81732 7.42107 0.668185 11.241 0.654542C15.0655 0.640883 18.1855 3.75151 18.1855 7.57642V8.35767C18.1855 8.73094 17.8869 9.02955 17.5136 9.02955H15.9511C15.5779 9.02955 15.2793 8.73094 15.2793 8.35767V7.57642C15.2793 5.35076 13.4563 3.5385 11.2245 3.56082L11.2244 3.56082C9.00885 3.5832 7.24801 5.42047 7.24801 7.62037V12.6545ZM11.2636 22.5295C12.6189 22.5295 13.7168 21.4317 13.7168 20.0764V17.7327C13.7168 16.3774 12.6189 15.2795 11.2636 15.2795C9.90839 15.2795 8.81051 16.3774 8.81051 17.7327V20.0764C8.81051 21.4317 9.90839 22.5295 11.2636 22.5295Z" fill="white" stroke="black"/>
</svg>