<svg width="25" height="19" viewBox="0 0 25 19" fill="none" xmlns="http://www.w3.org/2000/svg">
<path d="M14.5625 1.17291C14.5625 0.578236 15.2858 0.275007 15.7115 0.697013C15.7117 0.697196 15.7119 0.697379 15.7121 0.697561L23.9121 8.89762C23.9124 8.89792 23.9127 8.89823 23.913 8.89853C24.1732 9.16247 24.1732 9.58961 23.913 9.85354C23.9127 9.85385 23.9124 9.85415 23.9121 9.85446L15.7109 18.0557C15.2895 18.4771 14.5625 18.1779 14.5625 17.5792V12.8917V12.3917H14.0625H7.42188C7.0486 12.3917 6.75 12.0931 6.75 11.7198V7.03229C6.75 6.65902 7.0486 6.36041 7.42188 6.36041H14.0625H14.5625V5.86041V1.17291ZM8.875 16.212V18.1651C8.875 18.2112 8.83519 18.251 8.78906 18.251H4.6875C2.37575 18.251 0.5 16.3753 0.5 14.0635V4.68854C0.5 2.37679 2.37575 0.501038 4.6875 0.501038H8.78906C8.83519 0.501038 8.875 0.540853 8.875 0.586976V2.5401C8.875 2.58622 8.83519 2.62604 8.78906 2.62604H4.6875C3.5471 2.62604 2.625 3.54814 2.625 4.68854V14.0635C2.625 15.2039 3.5471 16.126 4.6875 16.126H8.78906C8.83519 16.126 8.875 16.1659 8.875 16.212Z" fill="white" stroke="#6C6A6A"/>
</svg>
