<svg width="10" height="10" viewBox="0 0 26 26" fill="none" xmlns="http://www.w3.org/2000/svg">
<path d="M24.4502 18.5494L18.9815 16.2057C18.7479 16.1061 18.4882 16.0851 18.2416 16.1459C17.9951 16.2067 17.7749 16.3459 17.6143 16.5426L15.1924 19.5016C11.3915 17.7095 8.33265 14.6506 6.54056 10.8497L9.49954 8.42784C9.69665 8.26753 9.83616 8.04736 9.89695 7.80067C9.95774 7.55398 9.93651 7.2942 9.83646 7.06065L7.49271 1.5919C7.3829 1.34015 7.18869 1.1346 6.94356 1.0107C6.69844 0.886802 6.41776 0.852317 6.14993 0.913193L1.07181 2.08507C0.81359 2.1447 0.583207 2.29009 0.418261 2.49751C0.253314 2.70494 0.163545 2.96214 0.163605 3.22716C0.163605 15.7516 10.315 25.8834 22.8199 25.8834C23.085 25.8836 23.3423 25.7939 23.5498 25.6289C23.7573 25.4639 23.9028 25.2335 23.9624 24.9752L25.1343 19.8971C25.1948 19.6279 25.1596 19.3461 25.0347 19.1002C24.9099 18.8542 24.7032 18.6595 24.4502 18.5494V18.5494Z" fill="white"/>
</svg>
