<svg width="57" height="57" viewBox="0 0 57 57" fill="none" xmlns="http://www.w3.org/2000/svg">
<g filter="url(#filter0_dd)">
<circle cx="28.5" cy="24.5" r="24.5" fill="#51C9C2"/>
<path d="M38.3125 22.5938H31.2812V15.5625C31.2812 14.6997 30.5815 14 29.7188 14H28.1562C27.2935 14 26.5938 14.6997 26.5938 15.5625V22.5938H19.5625C18.6997 22.5938 18 23.2935 18 24.1562V25.7188C18 26.5815 18.6997 27.2812 19.5625 27.2812H26.5938V34.3125C26.5938 35.1753 27.2935 35.875 28.1562 35.875H29.7188C30.5815 35.875 31.2812 35.1753 31.2812 34.3125V27.2812H38.3125C39.1753 27.2812 39.875 26.5815 39.875 25.7188V24.1562C39.875 23.2935 39.1753 22.5938 38.3125 22.5938Z" fill="white"/>
</g>
<defs>
<filter id="filter0_dd" x="0" y="0" width="57" height="57" filterUnits="userSpaceOnUse" color-interpolation-filters="sRGB">
<feFlood flood-opacity="0" result="BackgroundImageFix"/>
<feColorMatrix in="SourceAlpha" type="matrix" values="0 0 0 0 0 0 0 0 0 0 0 0 0 0 0 0 0 0 127 0" result="hardAlpha"/>
<feOffset dy="4"/>
<feGaussianBlur stdDeviation="2"/>
<feComposite in2="hardAlpha" operator="out"/>
<feColorMatrix type="matrix" values="0 0 0 0 0 0 0 0 0 0 0 0 0 0 0 0 0 0 0.25 0"/>
<feBlend mode="normal" in2="BackgroundImageFix" result="effect1_dropShadow"/>
<feColorMatrix in="SourceAlpha" type="matrix" values="0 0 0 0 0 0 0 0 0 0 0 0 0 0 0 0 0 0 127 0" result="hardAlpha"/>
<feOffset dy="4"/>
<feGaussianBlur stdDeviation="2"/>
<feComposite in2="hardAlpha" operator="out"/>
<feColorMatrix type="matrix" values="0 0 0 0 0 0 0 0 0 0 0 0 0 0 0 0 0 0 0.25 0"/>
<feBlend mode="normal" in2="effect1_dropShadow" result="effect2_dropShadow"/>
<feBlend mode="normal" in="SourceGraphic" in2="effect2_dropShadow" result="shape"/>
</filter>
</defs>
</svg>
