<svg width="25" height="30" viewBox="0 0 19 25" fill="none" xmlns="http://www.w3.org/2000/svg">
<path d="M17.7207 5.5H13.25V1.02468L17.7207 5.5ZM1.17188 0.75H10.1875V6.64062C10.1875 7.69937 11.0506 8.5625 12.1094 8.5625H18V23.8281C18 24.0633 17.8133 24.25 17.5781 24.25H1.17188C0.936674 24.25 0.75 24.0633 0.75 23.8281V1.17188C0.75 0.936674 0.936674 0.75 1.17188 0.75ZM13.4766 19.5C14.213 19.5 14.8125 18.9005 14.8125 18.1641V17.7734C14.8125 17.037 14.213 16.4375 13.4766 16.4375H5.27344C4.53696 16.4375 3.9375 17.037 3.9375 17.7734V18.1641C3.9375 18.9005 4.53696 19.5 5.27344 19.5H13.4766ZM13.4766 16.375C14.213 16.375 14.8125 15.7755 14.8125 15.0391V14.6484C14.8125 13.912 14.213 13.3125 13.4766 13.3125H5.27344C4.53696 13.3125 3.9375 13.912 3.9375 14.6484V15.0391C3.9375 15.7755 4.53696 16.375 5.27344 16.375H13.4766ZM14.8125 11.9141V11.5234C14.8125 10.787 14.213 10.1875 13.4766 10.1875H5.27344C4.53696 10.1875 3.9375 10.787 3.9375 11.5234V11.9141C3.9375 12.6505 4.53696 13.25 5.27344 13.25H13.4766C14.213 13.25 14.8125 12.6505 14.8125 11.9141Z" fill="white" stroke="#C4C4C4" stroke-width="1.5"/>
</svg>
