<svg width="49" height="49" viewBox="0 0 49 49" fill="none" xmlns="http://www.w3.org/2000/svg">
<circle cx="24.5" cy="24.5" r="24.5" fill="#029088"/>
<path d="M30.5379 16.9062L30.5377 16.906L25.8839 12.2168L30.5379 16.9062ZM30.5379 16.9062C30.6078 16.9765 30.6598 17.0618 30.6911 17.1544M30.5379 16.9062L30.6911 17.1544M30.6911 17.1544H25.6405V12.0642M30.6911 17.1544L25.6405 12.0642M25.6405 12.0642C25.7317 12.0956 25.8148 12.1473 25.8837 12.2166L25.6405 12.0642ZM22.894 32.047L22.8945 32.048C23.3228 32.9085 24.1799 33.4432 25.1308 33.4616L25.1308 33.4616L25.14 33.4617L30.7254 33.4665V34.881C30.7254 35.2444 30.4375 35.5294 30.0845 35.5294H14.1115C13.7585 35.5294 13.4706 35.2444 13.4706 34.881V12.6779C13.4706 12.3145 13.7585 12.0294 14.1115 12.0294H23.1192V18.0372C23.1192 18.9419 23.8534 19.6857 24.7602 19.6857H30.7259V21.206L24.7875 27.141L24.6409 27.2874V27.4946V30.2278C24.2813 29.8911 23.8304 29.6734 23.3679 29.5776C22.8679 29.474 22.3265 29.5069 21.8394 29.705L21.3732 28.2973L21.373 28.2966C21.1494 27.6247 20.5254 27.1693 19.8161 27.1693C19.1066 27.1693 18.4831 27.6254 18.259 28.296L18.2585 28.2975L17.3939 30.9116C17.3939 30.9117 17.3939 30.9117 17.3939 30.9118C17.3885 30.9278 17.3753 30.9357 17.3627 30.9357H16.7737C16.0742 30.9357 15.5131 31.5052 15.5131 32.2013C15.5131 32.8973 16.0742 33.4669 16.7737 33.4669H17.3627C18.4649 33.4669 19.439 32.7594 19.7864 31.7111L19.7865 31.7108L19.8166 31.6197L20.1412 32.5994C20.1413 32.5997 20.1414 32.6 20.1414 32.6002C20.4921 33.6656 21.963 33.7805 22.4657 32.7653L22.8301 32.0318C22.8339 32.0242 22.8368 32.0198 22.8384 32.0178C22.8388 32.0172 22.8392 32.0167 22.8395 32.0163C22.8409 32.0158 22.8437 32.015 22.8477 32.0142C22.8499 32.0139 22.8519 32.0136 22.8537 32.0135C22.856 32.0132 22.8578 32.0132 22.8586 32.0132C22.8595 32.0132 22.8626 32.0133 22.8664 32.014C22.8701 32.0147 22.8722 32.0155 22.8729 32.0158L22.8731 32.0159L22.8731 32.0159L22.8734 32.0162L22.8745 32.0171C22.8757 32.0183 22.8835 32.0259 22.894 32.047ZM39.6435 19.8888L39.6436 19.889C39.9227 20.1696 39.9227 20.6264 39.6436 20.907L39.6435 20.9072L38.7028 21.8541L36.1806 19.3153L37.126 18.3638C37.403 18.085 37.8514 18.085 38.1284 18.3638L39.6435 19.8888ZM29.7323 30.9357H27.1617V28.3392L34.3992 21.1064L36.9238 23.6476L29.7323 30.9357Z" fill="white" stroke="white"/>
</svg>
