<svg width="26" height="24" viewBox="0 0 26 24" fill="none" xmlns="http://www.w3.org/2000/svg">
<path d="M9.39758 20.0988L9.39712 20.0979C9.39358 20.0905 9.39046 20.085 9.38799 20.0811C9.38769 20.0817 9.38737 20.0823 9.38706 20.083L9.04111 20.8015L9.39758 20.0988ZM9.39758 20.0988C9.80476 20.9428 10.6252 21.4764 11.5455 21.4947L11.5455 21.4948L11.5551 21.4948L16.8333 21.4996V22.875C16.8333 23.2402 16.5565 23.5 16.2499 23.5H1.08333C0.776747 23.5 0.5 23.2402 0.5 22.875V1.125C0.5 0.759749 0.776746 0.5 1.08333 0.5H9.61107V6.375C9.61107 7.25194 10.3048 8 11.1944 8H16.8337V9.47939L11.197 15.2913L11.056 15.4367V15.6394V18.2695C10.355 17.6286 9.30286 17.4367 8.43936 17.7836L8.00386 16.4269L8.00363 16.4262C7.79186 15.7698 7.19448 15.3105 6.49997 15.3105C5.80516 15.3105 5.20826 15.7705 4.99604 16.4256L4.99558 16.4271L4.17466 18.9878C4.17231 18.9951 4.16917 18.9986 4.16761 19H3.6111C2.91831 19 2.38888 19.5774 2.38888 20.25C2.38888 20.9226 2.91831 21.5 3.6111 21.5H4.17036C5.23798 21.5 6.16788 20.7937 6.4971 19.7687L6.4972 19.7684L6.50044 19.7583M9.39758 20.0988L6.50044 19.7583M9.3848 20.0764C9.38349 20.0769 9.38364 20.0767 9.38553 20.0763C9.38699 20.0761 9.38821 20.0759 9.38871 20.076L9.3848 20.0764ZM9.3848 20.0764C9.38324 20.0742 9.3821 20.0728 9.38146 20.0721C9.38111 20.0717 9.38091 20.0715 9.38086 20.0715C9.38078 20.0714 9.38086 20.0715 9.38108 20.0717C9.38135 20.0719 9.38181 20.0723 9.38248 20.0727C9.38368 20.0736 9.38498 20.0743 9.38621 20.0749C9.38649 20.0751 9.38676 20.0752 9.38701 20.0753L9.3848 20.0764ZM6.50044 19.7583L6.78322 20.6389C6.78328 20.6391 6.78335 20.6393 6.78341 20.6395C7.11876 21.6911 8.55282 21.8177 9.04085 20.8021L6.50044 19.7583ZM16.6569 5.26851L16.6571 5.26869C16.7196 5.33362 16.7676 5.41289 16.7976 5.5H12.0555V0.54703C12.1226 0.576491 12.1846 0.619453 12.238 0.674945L16.6569 5.26851ZM25.303 8.19041L25.3032 8.19059C25.5656 8.46286 25.5656 8.91229 25.3032 9.18456L25.303 9.18474L24.4331 10.0881L22.0632 7.62703L22.9593 6.69651C23.2113 6.43481 23.6124 6.43481 23.8644 6.69651L25.303 8.19041ZM15.9004 19H13.4999V16.4664L20.3468 9.4073L22.7191 11.8709L15.9004 19Z" fill="#FFB63E" stroke="#FFB63E"/>
</svg>
