<svg width="19" height="25" viewBox="0 0 19 25" fill="none" xmlns="http://www.w3.org/2000/svg">
<path d="M18.0545 5.48033L18.0546 5.48051C18.1308 5.5567 18.1865 5.6495 18.2185 5.75H13V0.530275C13.1034 0.562188 13.1975 0.618515 13.2744 0.69535L18.0545 5.48033ZM10.4375 0.5V6.64062C10.4375 7.5613 11.1887 8.3125 12.1094 8.3125H18.25V23.8281C18.25 24.2014 17.9514 24.5 17.5781 24.5H1.17188C0.798603 24.5 0.5 24.2014 0.5 23.8281V1.17188C0.5 0.798603 0.798603 0.5 1.17188 0.5H10.4375ZM13.4766 19.25C14.075 19.25 14.5625 18.7625 14.5625 18.1641V17.7734C14.5625 17.175 14.075 16.6875 13.4766 16.6875H5.27344C4.67503 16.6875 4.1875 17.175 4.1875 17.7734V18.1641C4.1875 18.7625 4.67503 19.25 5.27344 19.25H13.4766ZM13.4766 16.125C14.075 16.125 14.5625 15.6375 14.5625 15.0391V14.6484C14.5625 14.05 14.075 13.5625 13.4766 13.5625H5.27344C4.67503 13.5625 4.1875 14.05 4.1875 14.6484V15.0391C4.1875 15.6375 4.67503 16.125 5.27344 16.125H13.4766ZM14.5625 11.9141V11.5234C14.5625 10.925 14.075 10.4375 13.4766 10.4375H5.27344C4.67503 10.4375 4.1875 10.925 4.1875 11.5234V11.9141C4.1875 12.5125 4.67503 13 5.27344 13H13.4766C14.075 13 14.5625 12.5125 14.5625 11.9141Z" fill="white" stroke="#6C6A6A"/>
</svg>
