<svg width="24" height="24" viewBox="0 0 24 24" fill="none" xmlns="http://www.w3.org/2000/svg">
<path d="M9.68921 20.4986V17.5727C9.68921 16.8258 10.3011 16.2203 11.0559 16.2203H13.8151C14.1776 16.2203 14.5252 16.3628 14.7815 16.6164C15.0378 16.87 15.1818 17.214 15.1818 17.5727V20.4986C15.1796 20.8091 15.3026 21.1077 15.5237 21.3281C15.7448 21.5485 16.0456 21.6724 16.3594 21.6724H18.2419C19.1211 21.6747 19.965 21.3307 20.5875 20.7163C21.21 20.1019 21.5598 19.2677 21.5598 18.3977V10.0623C21.5598 9.35951 21.245 8.69292 20.7003 8.24206L14.2965 3.18122C13.1825 2.29388 11.5865 2.32253 10.5058 3.24927L4.24816 8.24206C3.67766 8.67963 3.33667 9.3482 3.31982 10.0623V18.3892C3.31982 20.2025 4.80531 21.6724 6.63775 21.6724H8.47722C9.129 21.6724 9.6587 21.1521 9.66342 20.5071L9.68921 20.4986Z" fill="#9FA5C0"/>
</svg>
