<svg width="24" height="24" viewBox="0 0 24 24" fill="none" xmlns="http://www.w3.org/2000/svg">
<path fill-rule="evenodd" clip-rule="evenodd" d="M11.2361 3.67764C10.5925 3.67764 10.0451 4.12338 9.89139 4.72417H15.0588C14.9051 4.12338 14.3576 3.67764 13.7141 3.67764H11.2361ZM16.5187 4.72417H18.4205C20.4375 4.72417 22.0799 6.38116 22.0799 8.41607C22.0799 8.41607 22.0223 9.27752 22.0031 10.4771C22.0011 10.5721 21.955 10.6651 21.8792 10.7213C21.4172 11.0615 20.9945 11.3425 20.9561 11.3618C19.3617 12.4278 17.509 13.1778 15.5352 13.5508C15.4065 13.576 15.2797 13.5092 15.2144 13.3948C14.6611 12.4394 13.6277 11.8173 12.4751 11.8173C11.3302 11.8173 10.2871 12.4326 9.71754 13.389C9.65127 13.5014 9.52641 13.5663 9.39866 13.5421C7.44121 13.1681 5.58844 12.419 4.00365 11.3715L3.08158 10.732C3.00475 10.6835 2.95672 10.5963 2.95672 10.4994C2.92791 10.0052 2.87988 8.41607 2.87988 8.41607C2.87988 6.38116 4.5223 4.72417 6.53931 4.72417H8.43146C8.61395 3.31911 9.79534 2.22414 11.2361 2.22414H13.7141C15.1548 2.22414 16.3362 3.31911 16.5187 4.72417ZM21.7533 12.5732L21.7149 12.5926C19.7747 13.891 17.4408 14.7535 14.9915 15.112C14.6458 15.1604 14.3 14.9376 14.2039 14.5887C13.9926 13.7941 13.3107 13.2709 12.4943 13.2709H12.4847H12.4655C11.6491 13.2709 10.9671 13.7941 10.7558 14.5887C10.6598 14.9376 10.314 15.1604 9.96823 15.112C7.519 14.7535 5.18504 13.891 3.24487 12.5926C3.23526 12.5829 3.13921 12.5247 3.06237 12.5732C2.97593 12.6216 2.97593 12.7379 2.97593 12.7379L3.04316 17.6799C3.04316 19.7148 4.67598 21.3621 6.69299 21.3621H18.2572C20.2742 21.3621 21.907 19.7148 21.907 17.6799L21.9838 12.7379C21.9838 12.7379 21.9838 12.6216 21.8974 12.5732C21.8494 12.5441 21.7917 12.5538 21.7533 12.5732ZM13.1954 16.6333C13.1954 17.0403 12.8785 17.3601 12.4751 17.3601C12.0813 17.3601 11.7547 17.0403 11.7547 16.6333V15.3833C11.7547 14.986 12.0813 14.6566 12.4751 14.6566C12.8785 14.6566 13.1954 14.986 13.1954 15.3833V16.6333Z" fill="white"/>
</svg>
