<svg width="13" height="16" viewBox="0 0 13 16" fill="none" xmlns="http://www.w3.org/2000/svg">
<path d="M6.5 8C8.55156 8 10.2143 6.20937 10.2143 4C10.2143 1.79063 8.55156 0 6.5 0C4.44844 0 2.78571 1.79063 2.78571 4C2.78571 6.20937 4.44844 8 6.5 8ZM9.27991 9.01875L7.89286 15L6.96429 10.75L7.89286 9H5.10714L6.03571 10.75L5.10714 15L3.72009 9.01875C1.65112 9.125 0 10.9469 0 13.2V14.5C0 15.3281 0.623884 16 1.39286 16H11.6071C12.3761 16 13 15.3281 13 14.5V13.2C13 10.9469 11.3489 9.125 9.27991 9.01875Z" fill="#604B9A"/>
</svg>
